<svg width="7028" height="8813" viewBox="0 0 7028 8813" fill="none" xmlns="http://www.w3.org/2000/svg">
<path d="M5357.02 474.172H1817C1727.3 958.034 1167.51 1310.14 523.228 1310.14C519.878 1310.14 523.228 1272.55 486.008 1272.55V5713.66C486.008 5713.66 634.516 6816.12 1731.77 7106.44C2829.02 7396.76 3497.12 7955.8 3563 8328.01H3608.78C3674.66 7955.8 4276.14 7396.76 5373.39 7106.44C6470.64 6816.12 6552.9 5713.66 6552.9 5713.66V1272.55C5920.16 1268.45 5446.34 958.034 5357.02 474.172Z" fill="#19336C"/>
<path d="M3620.97 8327.7H3550.26L3548.02 8319.14C3483.63 7941.72 2838.98 7407.99 1731.31 7115.06C637.032 6825.49 479.218 5724.52 478.102 5713.72V1255.86H492.99C520.905 1255.86 531.699 1276.33 536.537 1287.87C1170.77 1284.15 1714.18 924.228 1802.77 453.392L1804.63 437.016H5369.21L5371.44 453.765C5458.91 920.506 5954.68 1251.39 6570.3 1255.49L6589.66 1257.72V5713.72C6589.66 5726.01 6482.46 6827.72 5387.82 7117.3C4318.48 7400.17 3690.58 7934.28 3625.07 8319.51L3620.97 8327.7ZM3575.19 8290.48H3596.04C3671.59 7918.27 4256.32 7376.72 5375.91 7080.82C6450.08 6796.83 6550.2 5719.68 6550.95 5708.88V1284.89C5933.09 1275.59 5440.3 958.098 5344.64 474.236H1829.19C1730.56 958.098 1173.37 1317.65 526.488 1317.65C514.95 1317.65 519.044 1307.6 517.555 1303.13C516.81 1300.9 523.138 1299.41 523.138 1297.55V5713.72C523.138 5722.66 672.019 6796.46 1746.94 7080.82C2854.98 7373.74 3497.78 7918.27 3575.19 8290.48Z" fill="#19336C"/>
<path d="M6548.92 843.044C6149.92 840.439 5873 614.14 5784.42 393.052C5708.86 204.346 5712.58 27.9219 5712.58 27.9219H5341.87H1802.23H1431.89C1431.89 27.9219 1429.65 195.785 1363.4 392.68C1297.15 589.575 1022.46 830.762 620.114 867.61C565.4 870.215 530.041 872.82 476.444 872.82L39.4787 872.448V1289.31V5730.43V5760.95L33.5234 5791.1C38.7343 5827.95 84.1428 6160.32 294.437 6534.39C584.01 7048.4 1034.37 7399.75 1602.35 7549.75C2172.94 7700.87 2537.7 7901.48 2743.9 8042.92C2968.71 8197.38 3065.11 8323.93 3096.37 8383.48C3181.61 8503.33 3243.39 8633.98 3275.78 8778.39L3547.48 8773.55H3593.26H3826.26C3889.54 8513.01 4064.47 8251.73 4307.15 8082.75C4531.96 7904.46 4906.02 7697.52 5472.88 7547.52C6047.94 7395.29 6492.34 7039.46 6758.47 6516.15C6951.27 6136.87 6988.49 5800.03 6991.1 5762.81L6999.28 5746.43V5729.68V1289.31V845.65L6548.92 843.044ZM6553.01 5730.43C6553.01 5730.43 6463.31 6824.33 5366.06 7114.65C4268.81 7404.97 3659.52 7955.45 3593.64 8327.65H3547.85C3481.97 7955.45 2821.69 7404.97 1724.44 7114.65C627.185 6824.33 486.121 5730.43 486.121 5730.43V1322.07C523.341 1322.07 512.547 1318.72 515.897 1318.72C1159.81 1318.72 1712.53 958.055 1802.23 474.192H5345.22C5434.55 958.055 5920.27 1285.59 6553.01 1289.31V5730.43Z" fill="white"/>
<path d="M3252.3 8813L3247.09 8789.55C3216.2 8651.46 3157.39 8520.82 3072.53 8401.34L3070.29 8398C3052.06 8363.38 2973.15 8237.2 2727.12 8068.22C2522.41 7927.53 2159.52 7728.78 1594.14 7579.15C1019.46 7426.92 560.536 7071.09 266.869 6549.27C61.7856 6184.88 8.93293 5857.34 0.372282 5795.19L0 5792.21L1.86112 5759.08V5730.42V842.666L472.697 843.038C519.966 843.038 555.698 841.177 601.106 838.943L618.6 838.199C996.013 803.956 1269.95 578.402 1335.46 384.113C1399.48 193.917 1402.46 30.8928 1402.46 29.404L1402.83 0H5743.45L5742.7 30.5207C5742.7 32.3817 5739.73 202.478 5811.93 382.996C5894.19 588.824 6159.57 811.028 6548.52 813.634L7027.92 816.611V5754.24L7020.1 5772.48C7015.64 5817.89 6978.04 6153.62 6785.61 6532.52C6515.77 7063.65 6064.66 7425.8 5481.05 7579.89C4879.94 7738.83 4521.14 7956.94 4326.1 8111.77C4082.31 8281.12 3915.94 8521.57 3855.64 8789.55L3850.43 8812.63L3252.3 8813ZM3122.03 8368.22C3206.15 8486.95 3266.07 8616.1 3299.57 8753.08L3802.79 8752.33C3870.53 8479.13 4042.86 8234.97 4290.37 8063.01C4488.38 7905.94 4854.63 7682.99 5465.41 7521.46C6031.91 7371.46 6469.99 7019.73 6732.02 6504.6C6932.63 6109.7 6960.55 5765.41 6960.55 5762.06L6960.92 5757.22L6967.62 5741.59V875.419L6547.41 872.814C6130.91 870.208 5845.06 628.277 5755.73 404.956C5696.55 257.192 5685.01 119.105 5682.78 59.1801H1460.15C1456.43 116.499 1442.66 250.12 1391.29 402.723C1317.97 620.461 1030.26 860.159 622.322 897.379L603.34 898.496C557.187 900.729 520.711 902.59 473.069 902.59L61.4134 902.218V5761.32L59.5524 5790.35C68.8575 5856.97 121.71 6170.74 318.605 6520.24C604.084 7027.55 1050.35 7373.69 1609.4 7521.46C2182.96 7673.32 2552.19 7875.8 2760.99 8019.09C3014.09 8192.91 3100.44 8328.39 3122.03 8368.22ZM3618.55 8365.24H3522.52L3518.43 8340.3C3455.15 7968.1 2814.59 7438.83 1712.5 7147.02C608.55 6855.22 449.62 5745.31 448.131 5734.15L447.759 5730.42V1292.29H477.535V1322.06L477.907 1292.29C486.468 1292.29 497.262 1291.91 501.728 1291.17L511.033 1290.05C1141.92 1290.05 1684.21 937.949 1772.05 470.836L1776.52 446.642H5369.01L5373.48 470.836C5459.83 931.622 5943.69 1256.18 6550.38 1259.9L6580.16 1260.28V5730.79C6579.04 5744.57 6476.69 6855.22 5371.62 7147.77C4308.24 7429.15 3686.66 7961.03 3621.9 8341.05L3618.55 8365.24ZM507.684 5728.56C515.128 5778.44 683.735 6813.9 1727.76 7090.08C2823.9 7380.02 3475.25 7910.41 3570.53 8298.99C3662.1 7914.5 4249.8 7383 5357.48 7090.08C6420.86 6808.69 6520.98 5738.98 6521.72 5728.56V1319.46C5910.57 1305.31 5422.98 975.169 5321 506.195H1826.4C1719.57 987.824 1161.64 1348.12 514.383 1349.23C512.522 1349.6 510.661 1349.98 508.056 1350.35V5728.56H507.684Z" fill="#19336C"/>
<path d="M3338.53 8702.86L3331.83 8679.78C3295.73 8567.75 3242.13 8460.93 3167.69 8355.22L3166.2 8352.25C3137.17 8300.14 3042.63 8160.19 2789.16 7986.37C2576.26 7840.47 2200.71 7633.9 1620.45 7480.18C1078.89 7336.88 642.671 7000.41 365.009 6507.24C178.536 6175.98 114.145 5867.8 114.145 5798.94V977.435L466.62 975.946C501.235 975.946 528.033 974.457 557.065 972.596L568.231 971.852C584.98 970.735 600.985 969.619 617.734 968.874L624.434 998.278L621.828 968.502C1054.33 929.049 1361.77 667.763 1441.79 429.553C1476.03 327.57 1495.76 231.542 1505.81 136.63L1508.41 102.016H5620.87L5623.48 137.375C5632.78 232.659 5656.6 331.292 5696.43 431.042C5794.32 676.323 6109.95 943.937 6552.87 946.542L6925.07 950.636V5753.9L6905.71 5768.42L6899.76 5775.49C6896.78 5808.24 6859.93 6127.59 6674.95 6491.98C6421.85 6990.36 5995.68 7330.55 5445.19 7476.45C4820.27 7641.71 4449.55 7865.41 4249.31 8023.59C4032.32 8175.45 3849.19 8421.48 3758.37 8676.81L3750.93 8700.25H3541.38L3338.53 8702.86ZM3217.19 8321.35C3290.14 8424.83 3343.74 8524.95 3381.33 8634.38L3537.29 8625.44H3708.87C3806.02 8364.9 3993.23 8125.2 4212.83 7971.86C4416.43 7811.06 4793.84 7584.77 5428.82 7416.9C5962.55 7275.84 6374.21 6946.81 6619.86 6464.06C6807.83 6094.1 6836.48 5771.02 6836.48 5768.05L6837.23 5763.58L6843.18 5742.37L6850.63 5734.18V1009.82L6544.68 1007.96C6074.59 1004.98 5746.68 719.499 5641.34 455.98C5603.01 360.324 5578.44 288.117 5567.28 176.456H1561.64C1550.47 250.896 1530.37 351.019 1497.99 447.791C1411.64 704.239 1084.85 985.623 627.039 1027.68L623.317 1028.05C604.335 1028.8 589.074 1029.92 574.559 1031.03L562.648 1031.78C532.5 1033.64 510.54 1035.5 474.064 1035.5L188.213 1036.99V5799.31C188.213 5855.14 241.81 6154.39 424.189 6478.21C693.663 6957.23 1112.02 7283.65 1637.57 7422.86C2226.39 7578.81 2607.15 7788.73 2823.78 7937.24C3076.13 8110.31 3178.11 8251.75 3217.19 8321.35Z" fill="#19336C"/>
<path d="M3508.66 5246.23C2668.97 5246.23 1985.61 4562.86 1985.61 3723.18C1985.61 2883.49 2668.97 2200.12 3508.66 2200.12C4348.35 2200.12 5031.71 2883.49 5031.71 3723.18C5031.71 4562.86 4348.72 5246.23 3508.66 5246.23ZM3508.66 2263.03C2703.59 2263.03 2048.88 2918.1 2048.88 3722.8C2048.88 4527.88 2703.96 5182.58 3508.66 5182.58C4313.73 5182.58 4968.44 4527.5 4968.44 3722.8C4968.81 2918.1 4313.73 2263.03 3508.66 2263.03Z" fill="white"/>
<path d="M5859.48 3602.23C5859.86 3519.6 5787.65 3458.19 5719.91 3452.61C5708 3451.49 5697.95 3451.12 5688.64 3451.12H5653.28C5641.75 3451.12 5601.92 3454.47 5565.07 3457.82C5564.33 3454.1 5563.96 3450.38 5563.58 3447.03C5552.05 3366.63 5536.79 3291.07 5518.92 3221.84C5517.8 3218.12 5517.43 3214.4 5517.06 3210.31C5562.1 3192.07 5605.64 3173.83 5643.24 3157.45C5709.12 3129.17 5747.45 3065.89 5741.5 2995.92C5740.01 2979.17 5735.54 2962.42 5728.47 2944.55C5698.32 2871.23 5668.17 2798.28 5637.28 2724.95C5610.85 2662.05 5554.65 2623.34 5490.63 2623.34C5468.67 2623.34 5446.34 2627.81 5424.38 2636.74L5416.94 2639.72C5378.6 2655.35 5338.77 2671.36 5300.81 2687.73C5300.06 2686.62 5299.32 2685.5 5298.58 2684.38C5262.47 2623.71 5220.79 2561.56 5167.93 2488.23C5166.82 2486.74 5165.7 2484.88 5164.58 2482.65C5185.8 2461.81 5207.01 2440.59 5227.49 2419.75C5237.54 2409.33 5247.96 2398.9 5258.38 2388.48C5301.93 2344.94 5317.56 2287.62 5301.18 2231.79C5293.37 2204.99 5278.85 2179.68 5260.24 2160.7C5206.64 2105.61 5150.07 2049.03 5087.54 1987.62C5056.27 1956.73 5016.07 1939.61 4974.39 1939.61C4932.7 1939.61 4891.76 1957.1 4859.75 1988.37C4828.11 2019.26 4795.73 2051.27 4764.09 2083.65C4761.86 2082.53 4759.63 2081.04 4757.77 2079.56C4698.96 2034.89 4634.94 1992.46 4567.94 1952.63C4564.97 1951.15 4562.36 1948.91 4559.76 1946.68C4569.43 1923.97 4578.74 1901.27 4587.67 1879.31C4595.11 1861.07 4602.56 1843.21 4610 1824.97C4625.26 1788.87 4628.24 1752.39 4618.56 1717.4C4605.16 1668.27 4570.92 1630.31 4522.54 1610.21C4492.01 1597.55 4461.49 1584.9 4430.97 1572.24L4387.8 1554.38C4379.98 1551.03 4371.05 1548.8 4361.74 1546.56C4356.91 1545.45 4352.07 1544.33 4348.72 1543.21C4348.72 1543.21 4348.72 1543.21 4348.34 1543.21C4349.83 1539.49 4353.18 1533.53 4355.42 1529.07C4364.35 1511.57 4375.89 1489.99 4375.89 1463.56C4375.89 1353.76 4287.68 1264.43 4179.36 1264.43C4066.96 1264.43 3972.05 1355.62 3972.42 1461.7C3971.68 1464.31 3970.56 1466.91 3969.44 1469.89C3965.72 1479.19 3964.6 1716.66 3964.6 1716.66C3906.17 1703.26 3796.37 1683.9 3795.25 1683.9C3796 1676.46 3792.27 1566.66 3792.27 1566.66C3792.27 1565.54 3792.27 1564.06 3792.27 1562.94C3792.27 1476.59 3749.47 1417.41 3668.33 1399.54C3661.63 1398.05 3648.6 1395.82 3648.6 1396.19V1319.15C3648.6 1230.19 3603.2 1218.65 3558.9 1218.65H3462.5C3392.53 1218.65 3357.54 1256.62 3357.54 1318.77L3353.82 1398.43C3294.27 1411.45 3244.77 1475.84 3238.07 1522.37C3236.21 1536.14 3239.18 1651.9 3239.18 1682.04C3232.48 1683.9 3215.36 1685.77 3205.68 1687.25C3146.13 1468.4 3070.2 1311.33 2979.76 1220.14L2958.91 1198.93C2950.73 1190.36 2939.19 1185.9 2927.28 1185.9C2915.37 1185.9 2904.2 1190.74 2895.64 1198.93L2874.42 1220.14C2807.06 1287.88 2747.88 1392.1 2697.63 1530.19C2633.61 1556.61 2569.59 1583.04 2505.94 1609.84C2416.99 1647.43 2380.14 1736.01 2416.99 1825.71L2426.29 1848.42C2439.69 1880.8 2453.09 1913.93 2467.24 1946.68C2465.37 1948.17 2463.14 1949.66 2461.28 1951.15C2393.91 1990.97 2329.15 2034.15 2268.48 2079.56C2266.62 2081.04 2264.76 2082.16 2262.52 2083.28C2240.94 2061.32 2218.98 2039.36 2197.39 2018.14L2167.99 1989.11C2121.83 1943.33 2060.42 1928.44 2001.98 1948.54C1978.91 1956.36 1956.95 1970.13 1940.2 1986.88C1876.92 2049.03 1819.98 2105.98 1766.38 2160.7C1703.48 2224.71 1703.48 2321.86 1766.75 2386.62C1795.04 2415.65 1828.16 2449.15 1862.78 2483.02C1861.29 2485.63 1859.8 2488.23 1858.31 2490.47C1813.65 2549.65 1770.85 2614.04 1730.65 2681.78C1729.53 2684.01 1728.04 2685.87 1726.18 2687.73C1710.92 2681.41 1695.29 2675.08 1678.91 2668.38C1655.09 2658.7 1630.53 2648.65 1607.08 2638.23C1585.49 2628.55 1562.04 2623.71 1538.59 2623.71C1471.22 2623.71 1413.53 2663.54 1387.85 2727.56C1370.73 2769.99 1353.24 2812.05 1335.74 2854.48C1323.46 2884.63 1310.8 2914.4 1298.52 2944.55C1262.05 3033.88 1298.89 3122.47 1388.59 3160.06L1416.88 3171.97C1447.03 3184.62 1477.92 3197.65 1509.19 3210.31C1508.82 3215.89 1508.07 3219.24 1507.33 3222.22C1494.3 3272.46 1477.92 3377.42 1469.73 3451.86H1361.42C1250.88 3451.86 1154.85 3507.69 1154.85 3665.14V3849.75C1154.85 3964.76 1241.2 4047.02 1361.42 4047.02H1466.76C1476.06 4121.46 1489.09 4176.54 1509.19 4256.19L1510.3 4260.66C1510.3 4261.03 1510.3 4261.4 1510.68 4261.78C1505.09 4263.64 1499.51 4265.87 1493.93 4267.73C1473.08 4275.18 1452.24 4282.62 1434.75 4290.06L1397.16 4305.32L1395.67 4305.7C1394.55 4306.07 1391.2 4307.18 1390.46 4307.56C1387.85 4308.67 1385.62 4309.42 1383.01 4310.53C1300.38 4347.38 1264.65 4434.85 1297.78 4518.22C1310.8 4550.6 1324.2 4582.99 1338.35 4617.23L1367.75 4688.32C1374.82 4705.07 1381.52 4721.82 1388.22 4738.57C1413.53 4803.33 1471.22 4843.53 1538.96 4843.53C1562.41 4843.53 1585.86 4838.69 1607.45 4829.01C1630.53 4818.96 1654.72 4808.91 1678.17 4799.24C1694.54 4792.54 1710.92 4785.84 1726.93 4779.14C1728.04 4780.63 1729.16 4782.11 1730.28 4783.6C1771.59 4852.83 1815.51 4918.71 1860.92 4979.38C1862.04 4980.5 1862.78 4981.99 1863.52 4983.48C1834.12 5012.51 1803.23 5043.77 1767.5 5079.88C1716.5 5131.61 1704.97 5205.31 1738.09 5267.09C1745.91 5281.61 1756.33 5295.38 1767.87 5307.29L1788.71 5328.13L1390.46 6173.03C1381.52 6191.64 1386.73 6213.98 1402.74 6227C1418.74 6240.03 1441.45 6240.4 1457.82 6227.75L1848.26 5930.73C1848.64 5930.36 1849.01 5930.36 1849.38 5929.99L1830.77 5970.93C1823.33 5987.68 1826.68 6007.4 1839.7 6020.43C1846.4 6027.13 1854.59 6031.23 1863.15 6033.09L1830.77 6104.92C1823.33 6121.67 1826.68 6141.4 1839.7 6154.42C1846.4 6161.12 1854.59 6165.22 1863.15 6167.08L1830.77 6238.91C1822.95 6256.41 1827.05 6276.51 1840.82 6289.53C1854.59 6302.56 1875.43 6305.54 1892.18 6296.6L1953.6 6266.83C2056.7 6222.54 2160.91 6190.16 2272.57 6171.54V6821.78C2272.57 6840.02 2279.27 6856.02 2296.02 6863.1C2312.77 6870.17 2322.82 6866.07 2335.48 6853.42L2458.68 6721.29V6895.1C2458.68 6916.69 2481.01 6934.93 2501.85 6939.03L2537.21 6944.98C2555.45 6949.82 2663.01 6974.38 2897.13 6976.99C2907.55 6976.99 2921.32 6976.99 2931.37 6976.99C3146.5 6976.99 3266.73 6950.56 3288.69 6944.98C3291.29 6944.24 3293.9 6943.49 3296.5 6942.38L3316.97 6936.79C3333.35 6929.72 3351.59 6913.72 3351.59 6895.85V6720.91L3475.9 6853.05C3488.56 6865.7 3500.84 6869.8 3517.59 6862.72C3534.34 6855.65 3538.06 6839.65 3538.06 6821.41V6403.05C3538.06 6402.31 3545.13 6401.19 3546.62 6400.45C3548.11 6399.7 3693.27 6317.08 3908.4 6247.85C3933.71 6509.5 3992.15 6824.76 4122.79 6956.15L4145.87 6977.36C4154.43 6985.55 4165.59 6989.27 4176.76 6989.27C4187.93 6989.27 4199.09 6985.18 4208.02 6976.62L4230.36 6954.66C4370.68 6813.59 4426.51 6448.83 4448.47 6152.19C4463.36 6151.82 4477.87 6151.45 4492.01 6151.45C4695.61 6151.45 4889.15 6190.16 5066.69 6266.83L5136.67 6305.17C5142.25 6307.77 5148.21 6317.08 5154.16 6317.08C5154.16 6317.08 5154.53 6317.08 5154.91 6317.08C5179.47 6317.08 5199.57 6288.79 5199.57 6264.22C5199.57 6255.29 5196.97 6243.01 5192.5 6235.94L5163.09 6168.19C5183.94 6164.47 5199.57 6145.12 5199.57 6123.16C5199.57 6114.23 5196.97 6105.29 5192.5 6098.22L5163.09 6032.34C5183.94 6028.62 5199.57 6010.01 5199.57 5988.42C5199.57 5979.49 5196.97 5970.93 5192.5 5964.23L5177.61 5931.1L5563.96 6211.37C5572.14 6217.33 5581.45 6205.79 5591.13 6205.79C5591.5 6205.79 5591.5 6205.79 5591.87 6205.79C5616.44 6205.79 5636.54 6200.58 5636.54 6176.01C5636.54 6166.71 5633.56 6165.59 5628.72 6158.15L5234.93 5329.62L5257.26 5309.15C5300.81 5265.6 5317.19 5210.89 5302.67 5153.2C5292.25 5111.14 5265.08 5084.71 5256.15 5075.78C5244.23 5064.24 5232.7 5052.33 5220.79 5040.42L5217.44 5037.07C5199.94 5019.58 5182.45 5001.71 5164.21 4983.85C5165.33 4981.99 5166.44 4980.13 5167.56 4978.64C5213.34 4917.97 5257.26 4852.46 5297.83 4784.72C5298.95 4782.86 5300.44 4781 5301.93 4779.14C5311.98 4783.23 5322.03 4787.7 5332.45 4791.79C5361.11 4803.7 5390.88 4815.61 5419.17 4828.64C5440.76 4838.32 5464.95 4843.53 5488.77 4843.53C5556.51 4843.53 5614.58 4803.33 5640.63 4738.19C5668.55 4667.85 5698.32 4596.01 5728.84 4525.67C5746.71 4484.35 5747.45 4437.08 5730.7 4396.89C5713.95 4356.32 5680.83 4324.31 5638.02 4307.56C5616.06 4299 5594.48 4289.69 5572.52 4280.76L5567.68 4278.53C5550.93 4271.45 5534.55 4264.75 5518.18 4257.68C5518.55 4254.7 5518.92 4251.73 5519.66 4248.75C5538.27 4176.91 5553.16 4102.85 5565.07 4022.08C5565.45 4019.84 5565.82 4017.98 5566.56 4015.75C5578.1 4015.75 5589.64 4015.75 5601.18 4015.75H5669.29H5700.93C5756.38 4015.75 5803.28 3991.93 5833.06 3948.75C5844.6 3931.63 5849.81 3914.88 5853.16 3904.46L5854.65 3900C5859.86 3885.48 5860.6 3873.57 5860.6 3865.38V3768.24C5859.48 3713.15 5859.48 3657.69 5859.48 3602.23ZM2458.68 4660.4C2458.68 4669.34 2422.57 4679.01 2409.54 4689.06L2458.68 4578.89V4660.4ZM2458.68 3084.13V3834.12L2132.63 4560.65C1986.72 4317.23 1913.4 4033.24 1913.03 3734.37C1913.03 3244.55 2127.04 2785.25 2498.87 2486.37C2471.7 2804.23 2458.68 3058.82 2458.68 3084.13ZM3873.04 4557.3C3724.16 4577.4 3605.8 4622.07 3478.51 4693.16C3437.57 4670.83 3389.18 4651.47 3351.96 4635.84V2975.07C3389.18 2976.19 3380.25 2968 3386.95 2968H3634.83C3679.87 2968 3715.23 2957.21 3742.4 2937.85L3873.04 3231.15V4557.3ZM4510.25 4667.1C4486.43 4655.19 4468.57 4642.54 4431.35 4629.88V4422.2L4567.57 4696.14C4553.43 4689.06 4535.93 4679.76 4510.25 4667.1ZM4858.26 4574.05L4431.35 3699.01V2450.64C4505.79 2502.75 4578.37 2553 4642.38 2617.39C4938.28 2915.15 5101.31 3313.41 5100.94 3739.2C5100.94 4030.64 5017.19 4317.98 4858.26 4574.05Z" fill="white"/>
<path d="M3379.26 1479.64C3470.82 1479.64 3562.38 1479.64 3653.94 1479.64C3700.84 1499.37 3710.89 1515 3710.89 1566.74C3710.89 1615.49 3711.26 1664.62 3710.52 1713.38C3710.52 1729.39 3716.1 1741.3 3728.75 1750.23C3748.11 1763.63 3769.32 1773.31 3792.4 1776.66C3864.61 1786.71 3935.7 1800.85 4006.05 1818.72C4028.75 1824.67 4051.83 1825.79 4074.9 1822.07C4093.51 1819.46 4106.54 1810.9 4113.98 1791.92C4132.97 1743.53 4154.18 1695.89 4173.54 1647.88C4192.52 1600.61 4239.04 1590.18 4273.66 1606.19C4300.83 1618.84 4329.12 1629.64 4356.66 1641.18C4401.7 1659.79 4446.73 1678.77 4491.77 1697.38C4514.1 1706.68 4529.36 1721.94 4535.69 1745.39C4540.16 1762.51 4537.92 1778.89 4530.85 1794.9C4510.75 1842.91 4491.77 1891.3 4470.93 1938.94C4462.74 1957.18 4465.34 1972.81 4476.51 1988.07C4489.91 2006.31 4505.91 2021.94 4525.64 2033.85C4588.17 2070.7 4648.84 2110.9 4706.9 2154.82C4724.02 2167.84 4743.75 2176.03 4764.59 2181.24C4783.57 2186.08 4799.21 2183.1 4814.1 2167.84C4850.57 2129.88 4888.16 2092.66 4925.76 2055.81C4956.65 2025.29 4997.22 2024.92 5028.11 2055.06C5085.8 2112.01 5143.12 2168.96 5199.7 2227.02C5208.63 2235.95 5215.33 2248.61 5218.68 2260.89C5226.5 2287.32 5217.56 2310.02 5198.21 2329.38C5161.36 2366.23 5125.26 2403.82 5087.66 2439.55C5072.4 2454.07 5067.57 2470.07 5073.52 2488.68C5079.85 2508.03 5086.92 2528.51 5098.83 2544.88C5143.49 2606.3 5186.3 2668.83 5225.01 2734.33C5236.17 2752.94 5251.8 2767.46 5269.3 2779.74C5283.81 2789.79 5297.96 2791.65 5315.08 2784.21C5363.09 2762.99 5412.22 2743.64 5460.98 2723.54C5503.04 2706.42 5540.26 2721.68 5558.13 2763.74C5588.65 2836.69 5618.8 2909.64 5648.94 2982.59C5652.29 2990.78 5654.9 2999.34 5655.64 3007.9C5658.62 3039.54 5642.25 3065.97 5611.35 3079.36C5562.59 3100.21 5513.46 3121.05 5463.96 3140.41C5445.35 3147.85 5436.42 3160.13 5433.07 3179.11C5429.35 3201.82 5429.72 3224.15 5435.67 3246.11C5453.91 3316.46 5468.05 3387.92 5478.48 3459.76C5481.83 3481.72 5490.01 3501.81 5501.55 3520.8C5511.23 3537.17 5525 3544.99 5545.1 3544.62C5593.86 3543.5 5642.99 3544.25 5691.75 3544.25C5699.94 3544.25 5708.12 3544.62 5716.31 3545.36C5743.11 3547.59 5773.63 3575.14 5773.63 3605.66C5773.26 3693.5 5773.63 3781.34 5773.63 3869.18C5773.63 3870.29 5773.63 3871.78 5773.26 3872.9C5769.54 3882.58 5767.68 3893.74 5761.72 3901.93C5747.95 3922.03 5727.85 3930.22 5703.29 3930.22C5650.06 3929.85 5596.46 3930.59 5543.24 3929.85C5525.75 3929.47 5513.09 3936.17 5503.79 3950.32C5491.5 3969.3 5482.2 3989.77 5478.85 4012.48C5468.05 4085.8 5453.91 4158.38 5435.67 4229.84C5430.09 4252.17 5429.72 4274.51 5433.44 4296.84C5436.79 4315.08 5445.35 4326.99 5463.22 4334.06C5511.6 4353.04 5559.24 4374.26 5607.26 4393.24C5652.29 4411.1 5665.32 4455.77 5648.94 4492.99C5618.05 4564.45 5588.28 4635.91 5559.62 4708.12C5540.63 4756.13 5493.74 4765.81 5458.38 4749.81C5410.36 4728.22 5361.23 4709.24 5312.85 4688.77C5298.7 4682.81 5286.42 4683.56 5273.77 4691.74C5253.29 4704.77 5236.17 4721.52 5223.89 4741.99C5185.55 4806.01 5144.24 4868.17 5099.2 4927.72C5086.18 4944.84 5077.99 4964.94 5073.15 4985.78C5069.05 5003.65 5072.03 5019.28 5086.92 5033.43C5124.14 5068.78 5159.87 5106 5196.35 5142.48C5206.77 5152.9 5215.33 5164.07 5219.05 5178.58C5226.12 5206.87 5217.56 5230.32 5197.46 5250.42C5146.84 5301.04 5096.22 5351.66 5045.98 5402.28C5039.28 5408.98 5032.95 5415.68 5025.88 5422C4997.22 5447.31 4958.88 5447.69 4930.22 5422.38C4926.13 5418.65 4922.03 5414.56 4917.94 5410.47C4882.95 5375.48 4847.59 5340.86 4812.98 5305.13C4800.7 5292.48 4786.92 5288.01 4770.55 5291.73C4748.22 5296.57 4727.37 5304.76 4708.76 5318.53C4649.58 5363.2 4588.17 5404.14 4524.15 5441.73C4504.8 5453.27 4489.54 5468.53 4476.51 5486.4C4465.34 5501.66 4463.11 5517.29 4471.3 5535.53C4491.77 5582.42 4510.01 5630.81 4530.85 5677.71C4549.09 5719.02 4530.48 5761.82 4490.28 5778.2C4416.96 5807.61 4344.38 5838.5 4271.8 5869.02C4266.21 5871.25 4259.89 5873.49 4253.93 5874.23C4219.69 5879.44 4190.66 5864.18 4176.51 5831.43C4155.3 5781.92 4134.08 5732.42 4113.98 5682.17C4106.91 5664.68 4095.37 5655.38 4078.25 5652.77C4055.92 5649.42 4033.59 5649.05 4010.88 5654.63C3946.49 5670.63 3881.73 5685.15 3815.85 5694.08C3786.45 5698.18 3758.16 5704.88 3732.48 5721.25C3717.22 5731.3 3709.4 5743.96 3709.77 5763.31C3710.89 5814.68 3710.14 5866.04 3710.14 5917.78C3710.14 5926.34 3709.77 5935.64 3707.54 5943.83C3698.98 5975.47 3671.44 5995.94 3635.7 5996.31C3586.2 5996.68 3536.7 5996.31 3487.2 5996.31C3457.05 5996.31 3426.9 5996.68 3396.75 5996.31C3364.37 5995.57 3336.45 5976.21 3327.89 5947.55C3324.92 5936.76 3324.17 5925.22 3323.8 5914.05C3323.43 5863.06 3323.05 5812.44 3323.8 5761.45C3324.17 5743.59 3316.73 5731.68 3302.58 5722.37C3283.97 5710.09 3263.87 5701.16 3241.91 5698.18C3169.71 5688.13 3098.62 5673.98 3028.27 5656.12C3005.94 5650.54 2983.61 5649.79 2961.27 5652.4C2941.18 5654.63 2927.03 5663.56 2919.22 5684.03C2900.61 5732.42 2880.13 5780.44 2860.04 5828.45C2842.54 5870.14 2804.2 5886.14 2762.89 5869.39C2689.19 5839.24 2615.87 5808.35 2542.55 5777.83C2538.45 5775.97 2534.36 5774.48 2530.64 5772.25C2499.37 5754.38 2487.46 5717.9 2501.98 5682.55C2522.08 5632.67 2542.92 5582.8 2564.13 5533.29C2570.46 5518.4 2569.35 5505.38 2560.78 5492.35C2547.39 5471.51 2529.89 5454.39 2508.68 5441.73C2446.52 5404.88 2386.59 5365.43 2328.9 5321.88C2310.67 5308.11 2290.19 5299.18 2268.23 5293.59C2249.62 5288.76 2234.74 5292.11 2220.59 5306.62C2184.12 5344.59 2146.52 5381.43 2108.93 5418.65C2077.29 5449.92 2036.72 5450.29 2005.09 5419.4C1948.14 5362.82 1891.19 5305.88 1834.62 5248.93C1829.04 5243.35 1823.82 5236.65 1820.1 5229.58C1805.21 5201.66 1810.43 5171.14 1834.25 5146.95C1872.21 5108.61 1910.18 5070.27 1948.89 5032.68C1961.54 5020.4 1965.26 5006.63 1961.54 4990.25C1956.7 4968.66 1948.89 4948.19 1935.49 4930.33C1890.08 4870.03 1848.76 4807.5 1810.43 4742.74C1798.89 4723.75 1782.88 4708.49 1764.64 4696.21C1750.13 4686.16 1735.99 4684.3 1718.86 4691.74C1671.22 4712.59 1622.46 4730.82 1574.82 4752.04C1541.32 4766.93 1493.68 4759.48 1474.7 4710.73C1464.28 4683.93 1452.74 4657.5 1441.95 4630.7C1422.59 4583.81 1402.86 4536.91 1383.88 4490.01C1368.25 4450.56 1383.88 4414.08 1422.59 4396.96C1425.94 4395.47 1429.66 4393.98 1433.01 4392.49C1479.91 4373.14 1526.44 4353.04 1573.71 4334.43C1587.85 4328.85 1596.41 4319.17 1599.39 4304.65C1604.23 4281.58 1604.97 4258.5 1599.39 4235.8C1582.27 4167.68 1568.12 4098.83 1558.07 4029.6C1554.72 4005.03 1547.28 3981.95 1535.74 3960.37C1525.32 3940.64 1510.43 3929.85 1485.87 3930.59C1434.5 3932.08 1383.14 3930.96 1331.4 3930.96C1299.39 3930.96 1276.69 3916.45 1262.92 3887.42C1261.06 3883.69 1257.71 3880.72 1255.47 3877.74C1255.47 3785.06 1255.47 3692.01 1255.47 3599.33C1257.71 3597.1 1260.68 3595.61 1261.8 3593C1275.94 3559.13 1301.63 3545.36 1337.36 3546.11C1387.98 3546.85 1438.97 3545.73 1489.59 3546.48C1507.83 3546.85 1520.85 3539.78 1530.53 3524.89C1543.18 3505.16 1552.49 3483.95 1555.84 3460.5C1565.89 3389.78 1579.29 3319.43 1597.53 3250.58C1603.11 3228.99 1603.48 3207.03 1601.25 3185.07C1599.39 3163.48 1589.71 3148.22 1567.75 3140.03C1520.48 3121.8 1473.96 3101.7 1427.06 3081.97C1382.77 3063.36 1367.13 3026.51 1385 2982.59C1414.78 2910.01 1445.3 2837.81 1474.33 2765.23C1493.31 2718.33 1539.46 2708.65 1574.45 2724.28C1622.09 2745.5 1670.48 2763.74 1718.12 2784.58C1735.24 2792.02 1749.76 2789.79 1763.9 2780.11C1782.51 2767.09 1798.89 2751.45 1810.43 2731.73C1847.65 2668.45 1888.22 2607.41 1932.51 2548.6C1945.54 2531.48 1953.35 2511.76 1959.31 2490.91C1964.89 2470.81 1960.8 2455.18 1945.16 2439.92C1907.2 2403.45 1869.98 2365.85 1833.13 2328.26C1803.35 2297.74 1802.98 2257.54 1832.39 2227.39C1889.7 2169.33 1947.4 2111.64 2005.46 2054.69C2013.28 2046.88 2023.7 2040.92 2033.75 2037.2C2062.03 2027.52 2086.6 2035.71 2107.44 2056.55C2145.04 2094.15 2183.37 2131.37 2220.22 2169.7C2232.87 2182.73 2246.65 2186.08 2263.02 2182.36C2284.98 2177.15 2306.2 2168.96 2324.44 2155.19C2383.62 2110.52 2445.03 2069.95 2509.05 2031.99C2528.78 2020.45 2544.41 2004.07 2557.44 1985.46C2567.48 1970.95 2569.72 1956.8 2562.27 1939.68C2541.43 1892.04 2521.7 1844.03 2501.98 1795.64C2483.74 1751.35 2499 1714.5 2542.92 1695.89C2615.13 1665.74 2687.33 1635.59 2759.54 1605.82C2765.87 1603.21 2772.57 1600.61 2779.27 1599.49C2814.25 1593.91 2843.66 1610.28 2857.8 1643.78C2878.65 1692.91 2899.12 1742.04 2918.47 1791.55C2925.17 1808.67 2936.71 1818.34 2954.2 1820.95C2976.53 1824.67 2999.24 1825.04 3021.57 1819.46C3086.71 1803.08 3151.84 1788.57 3218.47 1779.64C3247.13 1775.54 3275.04 1768.84 3299.98 1753.21C3315.61 1743.53 3323.43 1730.88 3323.05 1711.15C3321.94 1661.65 3322.68 1612.14 3322.68 1562.64C3322.68 1554.45 3323.05 1546.26 3324.17 1538.45C3327.89 1513.51 3341.66 1496.02 3364.37 1485.22C3370.32 1483.36 3374.79 1481.5 3379.26 1479.64ZM1832.39 3738.53C1833.13 4664.95 2581.26 5423.12 3518.09 5423.12C4456.41 5423.12 5203.05 4662.34 5203.05 3738.16C5203.05 2813.24 4455.67 2051.72 3516.6 2052.46C2580.14 2053.2 1832.39 2811.75 1832.39 3738.53Z" fill="white"/>
<path d="M3653.83 1479.57C3700.73 1499.3 3710.78 1514.93 3710.78 1566.67C3710.78 1615.42 3711.15 1664.56 3710.41 1713.31C3710.41 1729.32 3715.99 1741.23 3728.65 1750.16C3748 1763.56 3769.22 1773.24 3792.29 1776.59C3864.5 1786.64 3935.59 1800.78 4005.94 1818.65C4020.08 1822.37 4034.6 1824.23 4049.11 1824.23C4057.67 1824.23 4066.23 1823.49 4075.17 1822.37C4093.78 1819.76 4106.8 1811.2 4114.25 1792.22C4133.23 1743.83 4154.44 1696.19 4173.8 1648.18C4187.2 1614.31 4214.74 1599.42 4241.91 1599.42C4252.71 1599.42 4263.87 1602.02 4273.55 1606.49C4300.72 1619.15 4329.01 1629.94 4356.55 1641.48C4401.59 1660.09 4446.62 1679.07 4491.66 1697.68C4513.99 1706.99 4529.25 1722.25 4535.58 1745.7C4540.05 1762.82 4537.81 1779.19 4530.74 1795.2C4510.64 1843.21 4491.66 1891.6 4470.82 1939.24C4462.63 1957.48 4465.23 1973.11 4476.4 1988.37C4489.8 2006.61 4505.8 2022.24 4525.53 2034.15C4588.06 2071 4648.73 2111.2 4706.79 2155.12C4723.91 2168.14 4743.64 2176.33 4764.48 2181.54C4770.07 2183.03 4774.91 2183.78 4780.12 2183.78C4792.4 2183.78 4803.56 2179.31 4813.99 2168.14C4850.46 2130.18 4888.05 2092.96 4925.65 2056.11C4941.28 2040.85 4959.52 2033.03 4977.38 2033.03C4994.88 2033.03 5012.74 2040.48 5027.63 2055.37C5085.32 2112.31 5142.64 2169.26 5199.22 2227.32C5208.15 2236.26 5214.85 2248.91 5218.2 2261.19C5226.01 2287.62 5217.08 2310.33 5197.73 2329.68C5160.88 2366.53 5124.77 2404.12 5087.18 2439.85C5071.92 2454.37 5067.08 2470.37 5073.04 2488.98C5079.37 2508.34 5086.44 2528.81 5098.35 2545.18C5143.01 2606.6 5185.82 2669.13 5224.53 2734.64C5235.69 2753.25 5251.32 2767.76 5268.82 2780.04C5277.38 2786 5285.94 2788.98 5294.87 2788.98C5301.2 2788.98 5307.53 2787.49 5314.6 2784.51C5362.61 2763.3 5411.74 2743.94 5460.5 2723.84C5471.67 2719.38 5482.83 2717.14 5493.26 2717.14C5521.17 2717.14 5544.62 2733.52 5557.65 2764.04C5588.17 2836.99 5618.31 2909.94 5648.46 2982.89C5651.81 2991.08 5654.42 2999.64 5655.16 3008.2C5658.14 3039.84 5641.76 3066.27 5610.87 3079.67C5562.11 3100.51 5512.98 3121.35 5463.48 3140.71C5444.87 3148.15 5435.94 3160.43 5432.59 3179.42C5428.86 3202.12 5429.24 3224.45 5435.19 3246.41C5453.43 3316.76 5467.57 3388.22 5477.99 3460.06C5481.34 3482.02 5489.53 3502.12 5501.07 3521.1C5510.75 3537.1 5524.15 3544.92 5543.13 3544.92C5543.5 3544.92 5544.25 3544.92 5544.62 3544.92C5565.83 3544.55 5586.68 3544.55 5607.89 3544.55C5635.81 3544.55 5663.72 3544.92 5691.64 3544.92C5699.83 3544.92 5708.02 3545.29 5716.2 3546.04C5743 3548.27 5773.52 3575.81 5773.52 3606.33C5773.15 3694.17 5773.52 3782.01 5773.52 3869.85C5773.52 3870.97 5773.52 3872.46 5773.15 3873.57C5769.43 3883.25 5767.57 3894.42 5761.61 3902.61C5747.84 3922.33 5727.74 3930.89 5703.92 3930.89H5703.55C5692.76 3930.89 5682.33 3930.89 5671.54 3930.89C5648.84 3930.89 5626.13 3930.89 5603.43 3930.89C5583.33 3930.89 5563.6 3930.89 5543.5 3930.52C5543.13 3930.52 5543.13 3930.52 5542.76 3930.52C5525.64 3930.52 5512.98 3937.22 5504.05 3950.99C5491.77 3969.97 5482.46 3990.45 5479.11 4013.15C5468.32 4086.47 5454.17 4159.05 5435.94 4230.52C5430.35 4252.85 5429.98 4275.18 5433.7 4297.51C5437.05 4315.75 5445.61 4327.66 5463.48 4334.73C5511.87 4353.71 5559.51 4374.93 5607.52 4393.91C5652.56 4411.78 5665.58 4456.44 5649.21 4493.66C5618.31 4565.13 5588.54 4636.59 5559.88 4708.8C5546.48 4743.04 5518.94 4757.55 5491.39 4757.55C5480.23 4757.55 5469.06 4754.95 5458.64 4750.48C5410.63 4728.89 5361.5 4709.91 5313.11 4689.44C5307.15 4686.84 5301.2 4685.72 5295.62 4685.72C5288.17 4685.72 5281.1 4687.95 5273.66 4692.42C5253.19 4705.45 5236.06 4722.19 5223.78 4742.67C5185.44 4806.68 5144.13 4868.84 5099.09 4928.39C5086.07 4945.52 5077.88 4965.61 5073.04 4986.46C5068.95 5004.32 5071.92 5019.96 5086.81 5034.1C5124.03 5069.46 5159.76 5106.68 5196.24 5143.16C5206.66 5153.58 5215.22 5164.74 5218.94 5179.26C5226.01 5207.55 5217.45 5230.99 5197.35 5251.09C5146.74 5301.71 5096.12 5352.33 5045.87 5402.95C5039.17 5409.65 5032.84 5416.35 5025.77 5422.68C5011.63 5435.33 4994.5 5441.66 4977.76 5441.66C4961.01 5441.66 4944.26 5435.33 4930.11 5422.68C4926.02 5418.96 4921.93 5414.86 4917.83 5410.77C4882.84 5375.78 4847.48 5341.17 4812.87 5305.44C4803.56 5295.76 4793.14 5290.92 4781.23 5290.92C4777.88 5290.92 4774.16 5291.29 4770.44 5292.04C4748.11 5296.87 4727.26 5305.06 4708.65 5318.83C4649.47 5363.5 4588.06 5404.44 4524.04 5442.03C4504.69 5453.57 4489.43 5468.83 4476.4 5486.7C4465.23 5501.96 4463 5517.59 4471.19 5535.83C4491.66 5582.73 4509.9 5631.11 4530.74 5678.01C4548.98 5719.32 4530.37 5762.13 4490.17 5778.5C4416.85 5807.91 4344.27 5838.8 4271.69 5869.32C4266.11 5871.55 4259.78 5873.79 4253.82 5874.53C4249.36 5875.28 4244.89 5875.65 4240.8 5875.65C4212.14 5875.65 4188.69 5860.02 4176.4 5831.73C4155.19 5782.23 4133.97 5732.72 4113.87 5682.48C4106.8 5664.98 4095.26 5655.68 4078.14 5653.07C4067.72 5651.58 4057.67 5650.47 4047.25 5650.47C4034.97 5650.47 4023.06 5651.58 4010.77 5654.93C3946.38 5670.94 3881.62 5685.45 3815.74 5694.39C3786.34 5698.48 3758.05 5705.18 3732.37 5721.56C3717.11 5731.61 3709.29 5744.26 3709.66 5763.62C3710.78 5814.98 3710.04 5866.34 3710.04 5918.08C3710.04 5926.64 3709.66 5935.95 3707.43 5944.13C3698.87 5975.77 3671.33 5996.24 3635.59 5996.61C3615.12 5996.61 3594.65 5996.99 3573.81 5996.99C3544.78 5996.99 3515.75 5996.99 3486.71 5996.99C3468.85 5996.99 3450.98 5996.99 3433.12 5996.99C3420.83 5996.99 3408.55 5996.99 3396.27 5996.61C3363.89 5995.87 3335.97 5976.52 3327.41 5947.86C3324.43 5937.06 3323.69 5925.52 3323.32 5914.36C3322.95 5863.37 3322.57 5812.75 3323.32 5761.75C3323.69 5743.89 3316.25 5731.98 3302.1 5722.67C3283.49 5710.39 3263.39 5701.46 3241.43 5698.48C3169.23 5688.43 3098.13 5674.29 3027.79 5656.42C3013.65 5652.7 2999.5 5651.21 2985.36 5651.21C2977.17 5651.21 2968.98 5651.58 2960.79 5652.7C2940.69 5654.93 2926.55 5663.87 2918.73 5684.34C2900.12 5732.72 2879.65 5780.74 2859.55 5828.75C2846.53 5859.27 2822.33 5876.39 2794.05 5876.39C2784 5876.39 2773.2 5874.16 2762.41 5869.69C2688.71 5839.54 2615.39 5808.65 2542.07 5778.13C2537.97 5776.27 2533.88 5774.78 2530.15 5772.55C2498.89 5754.68 2486.98 5718.21 2501.5 5682.85C2521.59 5632.97 2542.44 5583.1 2563.65 5533.59C2569.98 5518.71 2568.86 5505.68 2560.3 5492.65C2546.9 5471.81 2529.41 5454.69 2508.19 5442.03C2446.04 5405.19 2386.11 5365.73 2328.42 5322.18C2310.18 5308.41 2289.71 5299.48 2267.75 5293.9C2262.54 5292.41 2257.7 5291.66 2252.86 5291.66C2240.95 5291.66 2230.16 5296.13 2220.11 5306.92C2183.63 5344.89 2146.04 5381.74 2108.45 5418.96C2092.45 5434.59 2074.21 5442.78 2055.97 5442.78C2038.1 5442.78 2020.24 5435.33 2004.61 5419.7C1947.66 5363.13 1890.71 5306.18 1834.14 5249.23C1828.55 5243.65 1823.34 5236.95 1819.62 5229.88C1804.73 5201.96 1809.94 5171.44 1833.76 5147.25C1871.73 5108.91 1909.69 5070.58 1948.4 5032.98C1961.06 5020.7 1964.78 5006.93 1961.06 4990.55C1956.22 4968.96 1948.4 4948.49 1935 4930.63C1889.6 4870.33 1848.28 4807.8 1809.94 4743.04C1798.41 4724.06 1782.4 4708.8 1764.16 4696.51C1755.6 4690.56 1747.04 4687.58 1738.11 4687.58C1731.78 4687.58 1725.45 4689.07 1718.38 4692.05C1670.74 4712.89 1621.98 4731.13 1574.34 4752.34C1564.29 4756.81 1553.12 4759.04 1541.96 4759.04C1515.16 4759.04 1487.62 4745.27 1474.22 4710.66C1463.8 4683.86 1452.26 4657.43 1441.46 4630.63C1422.11 4583.74 1402.38 4536.84 1383.4 4489.94C1367.77 4450.49 1383.4 4414.01 1422.11 4396.89C1425.46 4395.4 1429.18 4393.91 1432.53 4392.42C1479.43 4373.07 1525.95 4352.97 1573.22 4334.36C1587.37 4328.78 1595.93 4319.1 1598.91 4304.58C1603.74 4281.51 1604.49 4258.43 1598.91 4235.73C1581.78 4167.61 1567.64 4098.76 1557.59 4029.53C1554.24 4004.96 1546.8 3981.88 1535.26 3960.3C1525.21 3941.31 1511.07 3930.52 1487.99 3930.52C1487.24 3930.52 1486.5 3930.52 1485.38 3930.52C1464.54 3931.27 1443.7 3931.27 1423.23 3931.27C1394.19 3931.27 1365.16 3930.89 1335.76 3930.89C1334.27 3930.89 1332.78 3930.89 1330.92 3930.89C1298.91 3930.89 1276.21 3916.38 1262.43 3887.35C1260.57 3883.62 1257.22 3880.65 1254.99 3877.67C1254.99 3784.99 1254.99 3691.94 1254.99 3599.26C1257.22 3597.03 1260.2 3595.54 1261.32 3592.93C1275.09 3559.81 1300.03 3545.66 1334.64 3545.66C1335.39 3545.66 1336.13 3545.66 1336.88 3545.66C1352.51 3546.04 1367.77 3546.04 1383.4 3546.04C1404.24 3546.04 1425.09 3546.04 1446.3 3546.04C1460.82 3546.04 1474.96 3546.04 1489.48 3546.41C1489.85 3546.41 1490.22 3546.41 1490.59 3546.41C1508.46 3546.41 1521.12 3539.34 1530.42 3524.82C1543.07 3505.09 1552.38 3483.88 1555.73 3460.43C1565.78 3389.71 1579.18 3319.36 1597.42 3250.51C1603 3228.92 1603.37 3206.96 1601.14 3185C1599.28 3163.41 1589.6 3148.15 1567.64 3139.96C1520.37 3121.73 1473.85 3101.63 1426.95 3081.9C1382.66 3063.29 1367.02 3026.44 1384.89 2982.52C1414.67 2909.94 1445.19 2837.74 1474.22 2765.16C1487.62 2731.66 1514.79 2717.14 1542.33 2717.14C1553.5 2717.14 1564.66 2719.38 1574.71 2723.84C1622.35 2745.06 1670.74 2763.3 1718.38 2784.14C1725.45 2787.12 1731.78 2788.6 1738.11 2788.6C1747.41 2788.6 1755.97 2785.63 1764.54 2779.67C1783.15 2766.65 1799.52 2751.01 1811.06 2731.29C1848.28 2668.01 1888.85 2606.97 1933.14 2548.16C1946.17 2531.04 1953.99 2511.31 1959.94 2490.47C1965.52 2470.37 1961.43 2454.74 1945.8 2439.48C1907.83 2403 1870.61 2365.41 1833.76 2327.82C1803.99 2297.3 1803.62 2257.1 1833.02 2226.95C1890.34 2168.89 1948.03 2111.2 2006.09 2054.25C2013.91 2046.43 2024.33 2040.48 2034.38 2036.76C2042.2 2034.15 2050.01 2032.66 2057.46 2032.66C2076.44 2032.66 2093.19 2041.22 2108.08 2056.11C2145.67 2093.7 2184.01 2130.92 2220.85 2169.26C2230.16 2178.94 2240.58 2183.4 2251.75 2183.4C2255.47 2183.4 2259.56 2183.03 2263.29 2181.92C2285.25 2176.7 2306.46 2168.52 2324.7 2154.75C2383.88 2110.08 2445.29 2069.51 2509.31 2031.55C2529.04 2020.01 2544.67 2003.63 2557.7 1985.02C2567.75 1970.5 2569.98 1956.36 2562.54 1939.24C2541.69 1891.6 2521.97 1843.58 2502.24 1795.2C2484 1750.91 2499.26 1714.06 2543.18 1695.45C2615.39 1665.3 2687.6 1635.15 2759.8 1605.37C2766.13 1602.77 2772.83 1600.16 2779.53 1599.05C2784 1598.3 2788.46 1597.93 2792.93 1597.93C2821.96 1597.93 2845.78 1613.94 2858.06 1643.34C2878.91 1692.47 2899.38 1741.6 2918.73 1791.1C2925.43 1808.22 2936.97 1817.9 2954.47 1820.51C2964.89 1822.37 2975.68 1823.11 2986.1 1823.11C2998.01 1823.11 3009.92 1822 3021.83 1819.02C3086.97 1802.64 3152.1 1788.13 3218.73 1779.19C3247.39 1775.1 3275.3 1768.4 3300.24 1752.77C3315.87 1743.09 3323.69 1730.43 3323.32 1710.71C3322.2 1661.21 3322.95 1611.7 3322.95 1562.2C3322.95 1554.01 3323.32 1545.82 3324.43 1538.01C3328.16 1513.07 3341.93 1495.58 3364.63 1484.78C3369.1 1482.55 3373.56 1480.69 3378.03 1478.83C3470.71 1479.57 3562.27 1479.57 3653.83 1479.57ZM3517.61 5423.05C4455.93 5423.05 5202.57 4662.27 5202.57 3738.09C5202.57 2813.91 4455.56 2052.39 3517.61 2052.39C3517.23 2052.39 3516.86 2052.39 3516.12 2052.39C2580.03 2053.13 1832.28 2811.68 1831.9 3738.46C1833.02 4665.25 2581.15 5423.05 3517.61 5423.05ZM3662.77 1434.91H3653.83H3379.15H3369.47L3360.54 1439L3356.44 1440.86C3353.09 1442.35 3349.74 1443.84 3346.39 1445.7C3309.55 1463.57 3287.21 1493.71 3281.63 1532.8C3280.14 1543.96 3279.77 1554.38 3279.77 1563.32V1597.19C3279.77 1635.15 3279.4 1674.23 3280.14 1712.94C3280.14 1713.69 3280.14 1714.43 3280.14 1714.8C3279.77 1714.8 3279.03 1715.55 3277.91 1716.29C3261.9 1726.34 3242.92 1732.3 3214.26 1736.39C3155.08 1744.58 3091.06 1757.61 3012.53 1777.33C3004.71 1779.19 2996.9 1780.31 2987.96 1780.31C2980.52 1780.31 2972.33 1779.57 2963.4 1778.08H2963.03C2962.65 1777.7 2962.65 1777.33 2962.28 1776.59C2945.16 1733.41 2926.55 1687.63 2901.24 1627.71C2881.89 1582.3 2842.43 1555.13 2794.79 1555.13C2788.09 1555.13 2781.02 1555.87 2774.32 1556.62C2762.78 1558.48 2753.1 1562.2 2744.54 1565.55L2732.26 1570.76C2664.15 1599.05 2595.66 1627.33 2527.55 1655.99C2461.3 1683.91 2435.24 1747.18 2462.79 1813.81L2471.72 1835.4C2488.47 1875.97 2505.59 1917.65 2523.46 1958.97C2523.46 1959.34 2523.83 1959.71 2523.83 1960.08C2523.46 1960.46 2523.46 1960.83 2523.08 1961.2C2512.66 1976.46 2501.12 1987.25 2488.47 1994.7C2422.59 2033.78 2358.94 2075.84 2299.76 2120.5C2288.22 2129.06 2273.71 2135.39 2255.1 2139.86H2254.73C2254.73 2139.86 2254.73 2139.86 2254.35 2139.48C2224.95 2109.34 2194.8 2079.19 2165.4 2050.16L2140.83 2025.59C2117.01 2001.77 2088.35 1989.11 2058.57 1989.11C2046.29 1989.11 2033.27 1991.35 2020.98 1995.81C2004.23 2001.77 1988.23 2011.45 1975.95 2023.73C1913.04 2085.89 1856.1 2142.46 1802.5 2197.18C1756.35 2244.07 1756.35 2312.93 1803.24 2360.57C1836.37 2394.44 1875.45 2434.27 1916.02 2473.35C1917.88 2474.84 1918.63 2475.96 1919 2476.7C1919 2477.07 1918.63 2478.19 1918.25 2480.05C1913.04 2499.03 1906.72 2512.06 1898.9 2522.85C1854.98 2580.92 1813.29 2643.82 1774.21 2710.07C1766.77 2722.73 1755.97 2733.89 1740.34 2744.31C1739.97 2744.69 1739.23 2745.06 1738.85 2745.06C1738.48 2745.06 1738.11 2744.69 1737.74 2744.69C1715.03 2734.64 1691.96 2725.33 1669.25 2716.03C1644.31 2705.98 1619 2695.55 1594.44 2684.76C1578.81 2677.69 1561.31 2673.97 1544.19 2673.97C1495.43 2673.97 1453.75 2703 1434.76 2749.9C1417.64 2792.33 1400.15 2834.76 1382.66 2877.19C1370.37 2906.97 1357.72 2937.11 1345.44 2966.89C1318.26 3033.14 1345.06 3096.42 1411.32 3124.33L1439.6 3136.24C1476.45 3151.87 1514.79 3167.88 1553.5 3182.77C1556.1 3183.88 1557.22 3184.63 1557.59 3184.63C1557.59 3184.63 1558.34 3186.12 1558.71 3190.21C1560.57 3210.68 1559.82 3226.31 1556.1 3240.09C1538.98 3305.97 1524.84 3376.31 1513.67 3455.22C1511.44 3470.48 1505.48 3485.37 1495.06 3501.74C1494.69 3502.12 1494.69 3502.49 1494.32 3502.86C1493.94 3502.86 1493.2 3502.86 1492.46 3502.86C1477.57 3502.49 1463.05 3502.49 1448.16 3502.49H1416.53H1385.26C1370 3502.49 1354.74 3502.49 1339.48 3502.12H1336.5C1273.23 3502.12 1241.59 3535.99 1225.96 3568L1212.19 3581.02V3600.01V3878.41V3894.05L1221.86 3906.33C1222.98 3907.82 1224.47 3909.68 1225.96 3911.17C1247.55 3953.6 1285.51 3976.67 1333.15 3976.67H1337.99C1352.51 3976.67 1367.02 3976.67 1381.54 3976.67C1396.06 3976.67 1410.94 3976.67 1425.46 3976.67C1450.02 3976.67 1470.5 3976.3 1489.11 3975.93C1489.11 3975.93 1489.11 3975.93 1489.48 3975.93C1492.83 3975.93 1493.94 3976.3 1494.32 3976.3C1494.32 3976.3 1495.81 3977.42 1498.04 3981.88C1506.97 3998.63 1512.93 4016.5 1515.53 4036.23C1524.84 4102.48 1538.61 4171.71 1557.59 4247.26C1561.31 4261.41 1561.31 4276.67 1557.59 4293.79C1522.98 4307.93 1489.48 4321.71 1456.35 4335.85L1416.53 4350.74L1413.55 4351.85C1410.94 4352.97 1407.97 4354.09 1405.36 4355.2C1344.32 4382.37 1319.01 4444.16 1343.57 4505.57C1356.6 4538.33 1370.37 4571.08 1383.77 4603.83L1401.64 4647.01L1411.69 4671.2C1419.5 4689.44 1426.95 4707.68 1434.02 4726.29C1452.63 4774.3 1493.57 4802.96 1543.45 4802.96C1560.57 4802.96 1578.06 4799.24 1593.69 4792.17C1617.14 4781.75 1641.71 4771.7 1665.53 4762.02C1688.98 4752.34 1713.54 4742.67 1737.36 4731.87C1737.74 4731.5 1738.48 4731.5 1738.48 4731.5C1738.85 4731.87 1739.23 4731.87 1739.97 4732.24C1754.86 4742.67 1765.65 4753.09 1772.72 4765C1812.92 4832.74 1856.1 4897.5 1900.76 4956.68C1908.95 4967.48 1914.53 4981.25 1919 4999.86C1919 4999.86 1919 4999.86 1919 5000.23L1918.63 5000.6C1883.64 5034.84 1847.16 5071.32 1803.62 5115.61C1766.02 5153.58 1757.84 5205.31 1782.03 5250.72C1787.61 5261.14 1795.43 5271.56 1804.36 5280.5L1806.22 5282.36C1861.31 5337.82 1918.25 5395.14 1974.83 5450.97C1998.65 5474.41 2026.94 5486.7 2057.46 5486.7C2087.61 5486.7 2117.38 5473.67 2141.2 5450.22C2178.05 5413.75 2216.39 5376.15 2253.61 5337.44C2254.35 5336.7 2254.73 5336.33 2255.1 5335.96C2255.84 5335.96 2256.59 5336.33 2257.7 5336.7C2275.94 5341.54 2290.46 5348.24 2302.74 5357.54C2358.94 5399.97 2420.73 5441.29 2486.61 5480.37C2501.12 5488.93 2513.41 5500.84 2523.46 5516.1C2502.61 5564.49 2482.51 5612.87 2460.93 5665.73C2438.22 5721.93 2457.95 5781.85 2508.94 5811.26C2514.89 5814.61 2520.48 5816.84 2524.94 5819.07L2585.24 5844.38C2638.84 5866.72 2692.43 5889.42 2746.03 5911.38C2762.04 5918.08 2778.41 5921.43 2794.79 5921.43C2841.69 5921.43 2881.51 5893.51 2901.24 5846.62L2902.36 5844.38C2922.08 5797.86 2942.55 5749.47 2961.16 5701.09C2961.91 5699.6 2962.28 5698.85 2962.65 5698.48C2963.03 5698.48 2964.51 5698.11 2966.75 5697.74C2973.45 5696.99 2980.15 5696.62 2986.47 5696.62C2997.64 5696.62 3008.06 5697.74 3017.74 5700.34C3089.95 5718.95 3163.27 5733.47 3236.22 5743.52C3249.62 5745.38 3263.76 5750.96 3278.65 5761.01C3279.03 5761.38 3279.4 5761.38 3279.4 5761.75V5762.13C3278.65 5813.12 3279.03 5863.74 3279.4 5915.47C3279.4 5928.13 3280.14 5944.51 3285.35 5961.25C3299.5 6008.52 3343.79 6041.28 3396.27 6042.02C3408.92 6042.39 3421.21 6042.4 3433.86 6042.4H3460.66H3487.46H3530.63H3574.18C3595.02 6042.4 3615.5 6042.39 3636.34 6042.02C3692.17 6041.65 3737.21 6008.15 3750.98 5956.42C3754.7 5943.02 3755.07 5929.99 3755.07 5919.2V5892.03C3755.44 5849.97 3755.44 5806.79 3754.7 5763.62C3754.7 5762.5 3754.7 5761.75 3754.7 5761.38C3755.07 5761.38 3755.82 5760.64 3756.93 5759.89C3772.94 5749.47 3792.29 5743.52 3821.7 5739.42C3880.13 5731.61 3941.92 5719.32 4021.57 5699.22C4029.76 5697.36 4037.95 5696.25 4046.88 5696.25C4054.32 5696.25 4062.14 5696.99 4070.7 5698.11C4070.7 5698.11 4070.7 5698.11 4071.07 5698.11C4071.44 5698.48 4071.44 5699.22 4071.82 5699.6C4093.03 5752.82 4115.36 5805.3 4134.72 5849.97C4154.07 5894.26 4193.15 5920.69 4240.05 5920.69C4246.75 5920.69 4253.45 5920.31 4260.15 5919.2C4269.08 5917.71 4278.76 5915.1 4288.44 5911.01C4312.63 5900.96 4337.2 5890.54 4361.39 5880.49C4409.03 5860.39 4458.16 5839.92 4506.55 5820.56C4537.81 5807.91 4561.63 5784.83 4573.54 5755.06C4585.83 5725.28 4584.71 5691.78 4571.31 5660.89C4560.89 5637.07 4550.47 5612.13 4540.79 5587.94C4531.49 5564.86 4521.81 5541.78 4512.13 5519.08C4511.39 5517.59 4511.39 5516.85 4511.01 5516.1C4511.01 5516.1 4511.76 5514.98 4512.5 5513.87C4523.3 5498.98 4534.46 5488.56 4546.75 5481.11C4613 5442.03 4676.27 5399.6 4735.45 5355.31C4746.62 5346.75 4761.13 5340.79 4779.74 5336.7C4780.12 5337.07 4780.12 5337.07 4780.49 5337.44C4805.8 5363.5 4831.85 5389.55 4856.79 5414.49L4885.82 5443.52L4888.43 5446.13C4892.15 5449.85 4896.24 5453.94 4899.97 5457.29C4921.93 5476.65 4949.47 5487.44 4977.38 5487.44C5005.3 5487.44 5032.84 5476.65 5055.17 5456.92C5061.13 5451.71 5066.34 5446.13 5071.92 5440.54L5077.13 5435.33L5123.66 5388.81C5158.65 5353.82 5193.63 5318.46 5228.62 5283.48C5261 5251.09 5272.91 5211.64 5262.12 5169.21C5255.42 5142.41 5239.04 5123.8 5227.5 5112.26C5215.59 5100.35 5203.68 5088.44 5192.14 5076.53C5167.95 5051.97 5143.01 5027.03 5117.7 5002.83C5116.96 5002.09 5116.21 5001.35 5116.21 5000.97C5116.21 5000.6 5116.59 4999.48 5116.96 4997.62C5120.68 4980.87 5126.64 4967.48 5135.2 4956.68C5180.23 4897.13 5223.04 4833.11 5262.49 4766.86C5270.68 4753.09 5281.84 4741.55 5296.73 4731.87C5314.97 4740.06 5333.58 4747.5 5352.19 4754.95C5381.22 4766.86 5411.37 4779.14 5440.4 4792.17C5456.41 4799.24 5473.9 4803.33 5491.39 4803.33C5540.52 4803.33 5582.58 4773.93 5601.57 4726.29C5629.85 4654.83 5659.63 4582.99 5690.15 4512.27C5703.18 4481.75 5703.92 4447.51 5691.64 4418.11C5679.36 4388.7 5655.54 4365.62 5623.9 4352.97C5600.08 4343.67 5576.63 4333.62 5552.81 4323.57C5528.61 4313.52 5504.05 4303.09 5479.86 4293.42C5479.11 4293.05 5478.37 4292.67 5477.99 4292.67C5477.99 4292.3 5477.62 4291.18 5477.25 4289.7C5474.27 4272.57 5474.65 4256.57 5478.74 4241.68C5496.98 4171.71 5511.49 4098.76 5523.03 4019.48C5525.26 4005.33 5531.22 3990.82 5541.27 3975.18C5541.27 3975.18 5541.27 3974.81 5541.64 3974.81C5542.01 3974.81 5542.39 3974.81 5542.76 3974.81C5563.23 3975.19 5583.33 3975.18 5603.43 3975.18H5637.67H5671.54H5703.18C5744.49 3975.18 5777.25 3958.81 5798.46 3927.54C5806.28 3916 5810 3904.09 5812.6 3895.53C5813.35 3893.3 5814.09 3891.07 5814.84 3888.83C5818.19 3880.27 5818.19 3872.83 5817.82 3869.85V3791.32C5817.82 3729.53 5817.82 3668.12 5817.82 3606.33C5818.19 3549.01 5766.08 3505.09 5719.55 3501.37C5708.76 3500.63 5699.83 3500.26 5691.64 3500.26H5656.65C5640.27 3500.26 5623.9 3500.26 5607.89 3500.26C5586.68 3500.26 5565.09 3500.26 5543.87 3500.63C5542.01 3500.63 5541.27 3500.63 5540.52 3500.63C5540.52 3500.26 5540.15 3499.88 5539.41 3498.77C5529.73 3482.76 5524.52 3468.62 5522.29 3454.1C5511.49 3378.55 5496.6 3304.85 5478.74 3235.62C5474.65 3220.36 5474.27 3204.35 5476.88 3186.86C5477.25 3185 5477.62 3183.88 5477.62 3183.14C5478 3183.14 5478.74 3182.77 5479.86 3182.02C5534.2 3160.43 5587.79 3137.73 5628.36 3120.24C5676.75 3099.39 5703.92 3054.73 5699.46 3003.74C5698.34 2991.46 5694.99 2979.17 5689.41 2965.4C5659.26 2892.45 5629.11 2819.13 5598.59 2746.17C5578.86 2699.65 5539.41 2671.73 5493.26 2671.73C5476.88 2671.73 5460.13 2675.08 5443.75 2681.78L5436.68 2684.76C5390.9 2703.37 5343.26 2722.73 5297.1 2742.82C5296.73 2743.2 5295.99 2743.2 5295.99 2743.2C5295.62 2742.82 5295.24 2742.82 5294.87 2742.45C5280.36 2732.4 5269.93 2721.98 5263.23 2710.81C5227.88 2651.26 5186.93 2590.22 5134.82 2518.39C5127.01 2507.59 5121.43 2491.59 5115.84 2474.84C5116.21 2474.09 5116.96 2473.35 5118.45 2471.86C5145.99 2445.81 5172.79 2418.64 5198.84 2392.21C5209.26 2381.79 5219.69 2371.37 5230.11 2360.57C5262.12 2328.19 5273.28 2288.37 5261.75 2248.17C5255.79 2228.07 5245.37 2209.46 5231.6 2195.69C5178 2140.6 5121.43 2084.4 5059.64 2023.36C5036.56 2000.65 5007.53 1988.37 4977.76 1988.37C4947.61 1988.37 4918.2 2001.03 4894.38 2024.47C4857.16 2060.95 4818.82 2098.91 4781.98 2137.25C4780.49 2138.74 4779.74 2139.11 4779.74 2139.11C4780.12 2138.74 4778.63 2138.74 4776.02 2138C4758.53 2133.53 4745.13 2127.57 4733.96 2119.01C4676.27 2075.47 4614.11 2033.78 4548.23 1995.07C4534.83 1987.25 4523.3 1976.09 4512.13 1961.2C4511.39 1960.08 4510.64 1959.34 4510.64 1958.59C4510.64 1958.22 4511.01 1957.48 4511.76 1955.99C4524.79 1926.21 4537.44 1895.69 4549.35 1865.92C4556.79 1847.68 4564.24 1829.44 4572.06 1811.2C4583.22 1784.4 4585.45 1757.98 4578.76 1732.67C4569.08 1696.56 4544.88 1669.77 4508.78 1654.88C4477.89 1642.22 4447.37 1629.2 4416.47 1616.54L4373.67 1598.68C4364.74 1594.95 4355.81 1591.23 4346.87 1587.88C4327.89 1580.07 4309.65 1572.99 4292.16 1564.8C4276.53 1557.36 4259.03 1553.64 4241.54 1553.64C4192.78 1553.64 4150.72 1583.04 4131.74 1630.31C4122.81 1652.27 4113.87 1673.86 4104.57 1695.82C4093.78 1721.5 4082.61 1747.93 4072.19 1774.73C4071.82 1775.47 4071.82 1775.84 4071.44 1776.22C4070.7 1776.59 4069.58 1776.59 4067.72 1776.96C4061.39 1778.08 4054.69 1778.45 4048.37 1778.45C4037.57 1778.45 4027.15 1776.96 4016.36 1774.35C3944.52 1756.12 3871.2 1741.6 3797.87 1731.18C3783.36 1729.32 3768.84 1722.99 3754.33 1712.94C3754.7 1677.21 3754.7 1641.48 3754.7 1605.37V1565.55C3754.7 1495.95 3733.48 1463.57 3670.58 1437.14L3662.77 1434.91ZM3517.61 5378.39C2613.53 5378.39 1877.68 4642.92 1876.94 3738.46C1876.94 2834.01 2612.41 2097.8 3516.49 2097.05C3957.92 2097.05 4371.07 2268.64 4680.37 2580.17C4988.55 2890.22 5158.27 3301.5 5157.9 3738.09C5157.9 4642.54 4422.06 5378.39 3517.61 5378.39Z" fill="#19336C"/>
<path d="M2923.59 1276.78C2564.79 1637.45 2570 3088.29 2570 3088.29V6876.93C2570 6876.93 2657.46 6903.73 2901.26 6906.71C3145.05 6909.31 3277.18 6876.93 3277.18 6876.93V6467.51V3088.29C3277.18 3088.29 3282.39 1637.45 2923.59 1276.78Z" fill="white"/>
<path d="M2926.33 6936.47C2916.65 6936.47 2906.6 6936.47 2896.55 6936.47C2651.64 6933.5 2557.85 6906.7 2554.12 6905.58L2533.28 6899.25V3088.28C2533.28 3028.72 2535.14 1621.06 2898.78 1255.93L2919.63 1234.71L2944.94 1255.93C3308.21 1621.06 3314.91 3028.72 3314.91 3088.28V6900.37L3287.73 6905.95C3282.15 6907.07 3152.25 6936.47 2926.33 6936.47ZM2607.35 6853.1C2644.57 6860.54 2730.18 6875.06 2901.76 6876.92C3082.28 6878.78 3202.87 6861.29 3240.09 6852.36V3088.28C3240.09 3074.13 3249.03 1704.43 2923.72 1320.69C2598.42 1704.06 2607.35 3074.13 2607.35 3087.9V6853.1Z" fill="#19336C"/>
<path d="M3500.16 6754.14V5741.76L3276.84 5451.44V6545.71L3500.16 6754.14Z" fill="white"/>
<path d="M3500.67 6825.91L3240.12 6557.92V5359.06L3500.67 5732.38V6825.91ZM3314.57 6533.36L3463.45 6682.24V5751.36L3314.57 5544.05V6533.36Z" fill="#19336C"/>
<path d="M2346.19 6754.14V5741.76L2569.51 5451.44V6545.71L2346.19 6754.14Z" fill="white"/>
<path d="M2309.48 6825.91V5732.38L2607.24 5359.06V6557.92L2309.48 6825.91ZM2383.92 5751.36V6682.24L2532.8 6533.36V5544.05L2383.92 5751.36Z" fill="#19336C"/>
<path d="M2940.09 6754.06C2896.17 6754.06 2860.06 6717.96 2860.06 6674.04V5702.59C2860.06 5658.67 2896.17 5622.57 2940.09 5622.57C2984.01 5622.57 3020.11 5658.67 3020.11 5702.59V6674.04C3020.11 6717.96 2984.01 6754.06 2940.09 6754.06Z" fill="white"/>
<path d="M2940.22 6776.4C2883.65 6776.4 2837.87 6730.62 2837.87 6674.05V5702.6C2837.87 5646.02 2883.65 5600.24 2940.22 5600.24C2996.8 5600.24 3042.58 5646.02 3042.58 5702.6V6674.05C3042.58 6730.25 2996.8 6776.4 2940.22 6776.4ZM2940.22 5644.91C2908.59 5644.91 2882.53 5670.96 2882.53 5702.6V6674.05C2882.53 6705.68 2908.59 6731.74 2940.22 6731.74C2971.86 6731.74 2997.91 6705.68 2997.91 6674.05V5702.6C2997.91 5670.96 2971.86 5644.91 2940.22 5644.91Z" fill="#19336C"/>
<path d="M3563 1920.39H3466.6C3434.59 1920.39 3408.17 1893.96 3408.17 1861.95V1323.37C3408.17 1291.36 3434.59 1264.94 3466.6 1264.94H3563C3595.01 1264.94 3621.44 1291.36 3621.44 1323.37V1861.95C3621.44 1894.33 3595.39 1920.39 3563 1920.39Z" fill="white"/>
<path d="M3563.14 1942.72H3466.74C3422.08 1942.72 3385.97 1906.62 3385.97 1861.95V1323.38C3385.97 1278.71 3422.08 1242.61 3466.74 1242.61H3563.14C3607.8 1242.61 3643.91 1278.71 3643.91 1323.38V1861.95C3643.91 1906.62 3607.8 1942.72 3563.14 1942.72ZM3466.74 1287.27C3447.01 1287.27 3430.64 1303.28 3430.64 1323.38V1861.95C3430.64 1881.68 3446.64 1898.06 3466.74 1898.06H3563.14C3582.87 1898.06 3599.24 1882.05 3599.24 1861.95V1323.38C3599.24 1303.65 3583.24 1287.27 3563.14 1287.27H3466.74Z" fill="#19336C"/>
<path d="M3527.11 2247.45H3328.35L1495.26 6122.45L1807.91 5884.24L3527.11 2247.45Z" fill="white"/>
<path d="M1435.68 6195.78L3314.19 2225.12H3562.07L1825.38 5898.76L1435.68 6195.78ZM3342.85 2269.79L1554.42 6049.13L1789.65 5869.73L3491.35 2269.42H3342.85V2269.79Z" fill="#19336C"/>
<path d="M3503.51 2247.45H3702.26L5535.36 6122.45L5223.08 5884.24L3503.51 2247.45Z" fill="white"/>
<path d="M5595.24 6195.78L5205.55 5898.76L5203.31 5893.92L3468.85 2225.12H3716.74L3722.69 2237.78L5595.24 6195.78ZM5241.28 5870.1L5476.51 6049.5L3688.45 2269.79H3539.2L5241.28 5870.1Z" fill="#19336C"/>
<path d="M3638.24 2908.33H3390.35C3307.72 2908.33 3240.36 2840.96 3240.36 2758.33L3241.84 1955.49C3241.84 1872.86 3309.21 1805.49 3391.84 1805.49H3639.73C3722.36 1805.49 3789.73 1872.86 3789.73 1955.49L3788.24 2758.33C3787.86 2840.96 3720.5 2908.33 3638.24 2908.33Z" fill="white"/>
<path d="M3638.38 2930.73H3390.49C3295.58 2930.73 3218.16 2853.32 3218.16 2758.4L3219.65 1955.56C3219.65 1860.65 3297.07 1783.23 3391.98 1783.23H3639.87C3734.78 1783.23 3812.19 1860.65 3812.19 1955.56L3810.71 2758.4C3810.33 2853.32 3733.29 2930.73 3638.38 2930.73ZM3391.98 1827.9C3321.63 1827.9 3264.31 1885.22 3264.31 1955.56L3262.82 2758.4C3262.82 2828.75 3320.14 2886.07 3390.49 2886.07H3638.38C3708.72 2886.07 3766.04 2828.75 3766.04 2758.4L3767.53 1955.56C3767.53 1885.22 3710.21 1827.9 3639.87 1827.9H3391.98Z" fill="#19336C"/>
<path d="M3512.88 2247.35C3547.21 2247.35 3575.04 2219.52 3575.04 2185.19C3575.04 2150.86 3547.21 2123.03 3512.88 2123.03C3478.55 2123.03 3450.72 2150.86 3450.72 2185.19C3450.72 2219.52 3478.55 2247.35 3512.88 2247.35Z" fill="white"/>
<path d="M3513.02 2269.75C3466.49 2269.75 3428.53 2231.79 3428.53 2185.26C3428.53 2138.74 3466.49 2100.77 3513.02 2100.77C3559.54 2100.77 3597.51 2138.74 3597.51 2185.26C3597.51 2231.79 3559.54 2269.75 3513.02 2269.75ZM3513.02 2145.81C3491.06 2145.81 3473.19 2163.68 3473.19 2185.64C3473.19 2207.6 3491.06 2225.46 3513.02 2225.46C3534.98 2225.46 3552.84 2207.6 3552.84 2185.64C3552.84 2163.3 3534.98 2145.81 3513.02 2145.81Z" fill="#19336C"/>
<path d="M3512.88 2604.8C3547.21 2604.8 3575.04 2576.97 3575.04 2542.64C3575.04 2508.31 3547.21 2480.48 3512.88 2480.48C3478.55 2480.48 3450.72 2508.31 3450.72 2542.64C3450.72 2576.97 3478.55 2604.8 3512.88 2604.8Z" fill="white"/>
<path d="M3513.02 2627.14C3466.49 2627.14 3428.53 2589.17 3428.53 2542.65C3428.53 2496.12 3466.49 2458.16 3513.02 2458.16C3559.54 2458.16 3597.51 2496.12 3597.51 2542.65C3597.51 2589.17 3559.54 2627.14 3513.02 2627.14ZM3513.02 2502.82C3491.06 2502.82 3473.19 2520.69 3473.19 2542.65C3473.19 2564.61 3491.06 2582.47 3513.02 2582.47C3534.98 2582.47 3552.84 2564.61 3552.84 2542.65C3552.84 2520.69 3534.98 2502.82 3513.02 2502.82Z" fill="#19336C"/>
<path d="M4171.68 6906.59C3965.85 6700.01 3948.36 5868.89 3948.36 5868.89V2299.1C3948.36 2299.1 4019.07 2283.46 4159.02 2281.98C4298.6 2280.49 4395 2299.1 4395 2299.1V3932.69V5868.89C4395 5868.89 4377.5 6700.01 4171.68 6906.59Z" fill="white"/>
<path d="M4170.56 6949.04L4157.53 6927.82C3945.75 6714.92 3948.36 5903.52 3948.36 5869.28V2276.41L3962.13 2270.46C3964.73 2269.71 4019.45 2254.08 4161.26 2252.22H4176.52C4307.53 2252.22 4376.39 2269.34 4379.74 2270.08L4395 2275.3V5868.91C4395 5903.52 4396.49 6714.92 4184.71 6927.82L4170.56 6949.04ZM3985.58 2323.31V5868.53C3985.58 5876.35 3997.86 6630.06 4171.68 6860.82C4345.5 6630.06 4357.78 5876.35 4357.78 5868.53V2323.68C4320.56 2318.84 4262.12 2311.4 4178.75 2311.4H4156.79C4071.18 2312.89 4022.8 2319.22 3985.58 2323.31Z" fill="#19336C"/>
<path d="M4574.88 2191.9V2288.3C4574.88 2320.31 4548.45 2346.73 4516.44 2346.73H3848.71C3816.7 2346.73 3790.28 2320.31 3790.28 2288.3V2191.9C3790.28 2159.89 3816.7 2133.46 3848.71 2133.46H4516.44C4548.45 2133.46 4574.88 2159.89 4574.88 2191.9Z" fill="white"/>
<path d="M4516.58 2369.14H3848.85C3804.19 2369.14 3768.08 2333.04 3768.08 2288.37V2191.97C3768.08 2147.31 3804.19 2111.2 3848.85 2111.2H4516.58C4561.24 2111.2 4597.35 2147.31 4597.35 2191.97V2288.37C4597.35 2333.04 4560.87 2369.14 4516.58 2369.14ZM3848.85 2155.87C3829.12 2155.87 3812.75 2171.87 3812.75 2191.97V2288.37C3812.75 2308.1 3829.12 2324.47 3848.85 2324.47H4516.58C4536.31 2324.47 4552.68 2308.47 4552.68 2288.37V2191.97C4552.68 2172.24 4536.31 2155.87 4516.58 2155.87H3848.85Z" fill="#19336C"/>
<path d="M4294.2 1514.12H4070.88V2133.46H4294.2V1514.12Z" fill="white"/>
<path d="M4316.67 2155.87H4048.69V1491.86H4316.67V2155.87ZM4093.35 2111.2H4272.01V1536.52H4093.35V2111.2Z" fill="#19336C"/>
<path d="M4173.58 1599.85C4246.55 1599.85 4305.71 1540.69 4305.71 1467.72C4305.71 1394.74 4246.55 1335.59 4173.58 1335.59C4100.6 1335.59 4041.45 1394.74 4041.45 1467.72C4041.45 1540.69 4100.6 1599.85 4173.58 1599.85Z" fill="white"/>
<path d="M4173.71 1622.19C4088.48 1622.19 4019.25 1552.96 4019.25 1467.72C4019.25 1382.49 4088.48 1313.26 4173.71 1313.26C4258.95 1313.26 4328.18 1382.49 4328.18 1467.72C4328.18 1552.96 4258.95 1622.19 4173.71 1622.19ZM4173.71 1357.92C4113.04 1357.92 4063.91 1407.05 4063.91 1467.72C4063.91 1528.39 4113.04 1577.52 4173.71 1577.52C4234.38 1577.52 4283.51 1528.39 4283.51 1467.72C4283.51 1407.42 4234.38 1357.92 4173.71 1357.92Z" fill="#19336C"/>
<path d="M4208.29 2335.25H4133.85V6876.11H4208.29V2335.25Z" fill="#19336C"/>
<path d="M2449.45 5051.5C2449.45 5051.5 2905.02 4696.05 3500.55 5042.19V6340.81C3500.55 6340.81 2718.18 5864.39 1932.83 6203.09L2449.45 5051.5Z" fill="white"/>
<path d="M3500.73 6393.62L3462.4 6366.08C3458.3 6363.47 3042.55 6111.12 2520.36 6111.12C2311.92 6111.12 2114.65 6151.31 1931.53 6230.22L1861.93 6260.74L2417.26 5032.48L2423.21 5028.01C2431.77 5021.31 2637.6 4860.89 2958.06 4860.89C3140.07 4860.89 3315.75 4913.37 3492.92 5016.47L3500.73 5025.03V6393.62ZM2527.8 6051.57C2972.21 6051.57 3314.63 6223.15 3463.51 6289.4V5058.9C3277.41 4966.6 3128.53 4920.07 2962.16 4920.07C2691.2 4920.07 2501.74 5045.88 2467.87 5070.44L1982.15 6147.59C2152.99 6083.95 2337.23 6051.57 2527.8 6051.57Z" fill="#19336C"/>
<path d="M2449.45 4917.41C2449.45 4917.41 2905.02 4561.95 3500.55 4908.1V6206.71C3500.55 6206.71 2718.18 5730.29 1932.83 6069L2449.45 4917.41Z" fill="white"/>
<path d="M3500.73 6259.98L3462.4 6232.44C3458.3 6229.83 3042.55 5977.48 2520.36 5977.48C2311.92 5977.48 2114.65 6017.67 1931.53 6096.58L1861.93 6127.1L2417.26 4898.84L2423.21 4894.37C2431.77 4887.67 2637.6 4727.25 2958.06 4727.25C3140.07 4727.25 3315.75 4779.73 3492.92 4882.83L3500.73 4891.39V6259.98ZM2527.8 5917.55C2972.21 5917.55 3314.63 6089.14 3463.51 6155.39V4924.89C3277.41 4832.58 3128.53 4786.06 2962.16 4786.06C2691.2 4786.06 2501.74 4911.86 2467.87 4936.43L1982.15 6013.58C2152.99 5949.93 2337.23 5917.55 2527.8 5917.55Z" fill="#19336C"/>
<path d="M2449.45 4783.55C2449.45 4783.55 2905.02 4428.1 3500.55 4774.25V6072.86C3500.55 6072.86 2718.18 5596.44 1932.83 5935.15L2449.45 4783.55Z" fill="white"/>
<path d="M3500.73 6126.13L3462.4 6098.58C3458.3 6095.98 3042.55 5843.62 2520.36 5843.62C2311.92 5843.62 2114.65 5883.82 1931.53 5962.73L1861.93 5993.25L2417.26 4764.98L2423.21 4760.52C2431.77 4753.82 2637.6 4593.4 2958.06 4593.4C3140.07 4593.4 3315.75 4645.88 3492.92 4748.98L3500.73 4757.54V6126.13ZM2527.8 5784.07C2972.21 5784.07 3314.63 5955.66 3463.51 6021.91V4791.41C3277.41 4699.1 3128.53 4652.58 2962.16 4652.58C2691.2 4652.58 2501.74 4778.38 2467.87 4802.95L1982.15 5880.1C2152.99 5816.08 2337.23 5784.07 2527.8 5784.07Z" fill="#19336C"/>
<path d="M4569.68 5051.63C4569.68 5051.63 4096.98 4696.18 3501.46 5042.33V6340.94C3501.46 6340.94 4292.39 5864.52 5077.36 6203.23L4569.68 5051.63Z" fill="white"/>
<path d="M3501.46 6393.75V5025.16L3508.16 5016.6C3685.7 4913.5 3865.47 4861.02 4050.46 4861.02C4375.76 4861.02 4587.55 5021.07 4596.48 5027.77L4601.69 5032.24L4604.3 5039.31L5146.22 6260.5L5076.25 6230.35C4893.12 6151.45 4693.62 6111.25 4484.07 6111.25C3959.27 6111.25 3543.15 6363.6 3538.68 6366.21L3501.46 6393.75ZM3538.68 5059.41V6290.28C3687.56 6224.03 4033.34 6052.07 4480.72 6052.07C4672.78 6052.07 4857.77 6084.45 5029.35 6148.47L4551.81 5071.32C4516.08 5046.38 4318.82 4920.95 4043.01 4920.95C3873.66 4920.58 3724.78 4967.1 3538.68 5059.41Z" fill="#19336C"/>
<path d="M4569.68 4917.62C4569.68 4917.62 4096.98 4562.16 3501.46 4908.31V6206.92C3501.46 6206.92 4292.39 5730.51 5077.36 6069.21L4569.68 4917.62Z" fill="white"/>
<path d="M3501.46 6259.74V4891.15L3508.16 4882.59C3685.7 4779.49 3865.47 4727.01 4050.46 4727.01C4375.76 4727.01 4587.55 4887.06 4596.48 4893.75L4601.69 4898.22L4604.3 4905.29L5146.22 6126.49L5076.25 6096.34C4893.12 6017.43 4693.62 5977.23 4484.07 5977.23C3959.27 5977.23 3543.15 6229.59 3538.68 6232.19L3501.46 6259.74ZM3538.68 4925.39V6156.26C3687.56 6090.01 4033.34 5918.05 4480.72 5918.05C4672.78 5918.05 4857.77 5950.44 5029.35 6014.46L4551.81 4937.3C4516.08 4912.36 4318.82 4786.93 4043.01 4786.93C3873.66 4786.56 3724.78 4833.09 3538.68 4925.39Z" fill="#19336C"/>
<path d="M4569.68 4783.57C4569.68 4783.57 4096.98 4428.12 3501.46 4774.26V6072.88C3501.46 6072.88 4292.39 5596.46 5077.36 5935.16L4569.68 4783.57Z" fill="white"/>
<path d="M3501.46 6125.69V4757.1L3508.16 4748.54C3685.7 4645.44 3865.47 4592.96 4050.46 4592.96C4375.76 4592.96 4587.55 4753.01 4596.48 4759.71L4601.69 4764.17L4604.3 4771.25L5146.22 5992.44L5076.25 5962.29C4893.12 5883.39 4693.62 5843.19 4484.07 5843.19C3959.27 5843.19 3543.15 6095.54 3538.68 6098.15L3501.46 6125.69ZM3538.68 4791.34V6022.22C3687.56 5955.96 4033.34 5784.01 4480.72 5784.01C4672.78 5784.01 4857.77 5816.39 5029.35 5880.41L4551.81 4803.25C4516.08 4778.32 4318.82 4652.89 4043.01 4652.89C3873.66 4652.51 3724.78 4699.04 3538.68 4791.34Z" fill="#19336C"/>
<path d="M4098.74 1967.83L4316.85 1807.78L4295.64 1771.31L4096.51 1918.33V1794.01L4098.74 1804.06L4316.85 1644.01L4295.64 1607.54L4096.51 1754.56V1739.67H4059.29V2149.09H4096.51V2121.55L4098.74 2131.6L4316.85 1971.55L4295.64 1935.08L4096.51 2082.1V1957.78L4098.74 1967.83Z" fill="#19336C"/>
</svg>
